<?xml version="1.0" encoding="UTF-8"?>
<!DOCTYPE svg PUBLIC "-//W3C//DTD SVG 1.1//EN" "http://www.w3.org/Graphics/SVG/1.1/DTD/svg11.dtd">
<svg xmlns="http://www.w3.org/2000/svg" version="1.1" width="430px" height="350px" style="shape-rendering:geometricPrecision; text-rendering:geometricPrecision; image-rendering:optimizeQuality; fill-rule:evenodd; clip-rule:evenodd" xmlns:xlink="http://www.w3.org/1999/xlink">
<g><path style="opacity:0.969" fill="#919398" d="M 98.5,22.5 C 99.4972,22.4701 100.164,22.9701 100.5,24C 96.7949,31.0405 92.2949,37.5405 87,43.5C 86.3333,42.5 86.3333,41.5 87,40.5C 91.6035,34.9519 95.4368,28.9519 98.5,22.5 Z"/></g>
<g><path style="opacity:1" fill="#a3a5a8" d="M 102.5,23.5 C 108.322,24.5714 112.989,27.4047 116.5,32C 111.929,35.6395 107.262,39.3062 102.5,43C 101.552,43.4828 100.552,43.6495 99.5,43.5C 99.33,42.1779 99.6634,41.0113 100.5,40C 104.844,37.8295 108.844,35.1628 112.5,32C 110.17,29.8328 107.503,28.1662 104.5,27C 103.177,26.1841 102.511,25.0174 102.5,23.5 Z"/></g>
<g><path style="opacity:0.999" fill="#9fa0a5" d="M 81.5,22.5 C 82.8734,22.3433 84.2068,22.51 85.5,23C 81.1667,26.1667 76.8333,29.3333 72.5,32.5C 75.8166,35.4933 79.4832,37.9933 83.5,40C 84.731,41.1827 84.731,42.3493 83.5,43.5C 77.3768,41.108 72.3768,37.2747 68.5,32C 72.5461,28.3231 76.8794,25.1564 81.5,22.5 Z"/></g>
<g><path style="opacity:1" fill="#f1f1f2" d="M 92.5,48.5 C 93.1667,48.5 93.8333,48.5 94.5,48.5C 102.67,49.2908 111.004,49.9575 119.5,50.5C 146.154,49.7966 172.821,49.7966 199.5,50.5C 199.5,53.1667 199.5,55.8333 199.5,58.5C 159.167,58.5 118.833,58.5 78.5,58.5C 71.8333,58.5 65.1667,58.5 58.5,58.5C 58.5,55.5 58.5,52.5 58.5,49.5C 65.0192,49.4299 71.5192,49.7632 78,50.5C 83.0311,50.2226 87.8645,49.556 92.5,48.5 Z"/></g>
<g><path style="opacity:1" fill="#a7a9ad" d="M 200.5,144.5 C 200.5,130.833 200.5,117.167 200.5,103.5C 200.829,88.324 200.496,73.324 199.5,58.5C 199.5,55.8333 199.5,53.1667 199.5,50.5C 172.821,49.7966 146.154,49.7966 119.5,50.5C 111.004,49.9575 102.67,49.2908 94.5,48.5C 128.477,48.6368 163.81,48.4701 200.5,48C 201.832,80.2643 201.832,112.431 200.5,144.5 Z"/></g>
<g><path style="opacity:1" fill="#a1c3fe" d="M 63.5,52.5 C 68.2183,53.3189 68.5516,54.9855 64.5,57.5C 62.2957,56.218 61.9624,54.5514 63.5,52.5 Z"/></g>
<g><path style="opacity:1" fill="#fde7ad" d="M 72.5,52.5 C 76.1612,52.3501 77.1612,53.8501 75.5,57C 72.1399,57.1178 71.1399,55.6178 72.5,52.5 Z"/></g>
<g><path style="opacity:1" fill="#d8d8d8" d="M 78.5,58.5 C 118.833,58.5 159.167,58.5 199.5,58.5C 200.496,73.324 200.829,88.324 200.5,103.5C 199.504,89.3431 199.171,75.0097 199.5,60.5C 157.833,60.5 116.167,60.5 74.5,60.5C 75.8333,59.8333 77.1667,59.1667 78.5,58.5 Z"/></g>
<g><path style="opacity:1" fill="#ededed" d="M 74.5,60.5 C 116.167,60.5 157.833,60.5 199.5,60.5C 199.171,75.0097 199.504,89.3431 200.5,103.5C 200.5,117.167 200.5,130.833 200.5,144.5C 153.167,144.5 105.833,144.5 58.5,144.5C 58.824,137.646 58.4907,130.979 57.5,124.5C 57.5,123.833 57.5,123.167 57.5,122.5C 58.477,101.879 58.8103,81.2125 58.5,60.5C 63.8333,60.5 69.1667,60.5 74.5,60.5 Z"/></g>
<g><path style="opacity:0.059" fill="#2b1511" d="M 243.5,73.5 C 242.833,72.1667 242.833,72.1667 243.5,73.5 Z"/></g>
<g><path style="opacity:0.973" fill="#b1b2b5" d="M 92.5,48.5 C 87.8645,49.556 83.0311,50.2226 78,50.5C 71.5192,49.7632 65.0192,49.4299 58.5,49.5C 58.5,52.5 58.5,55.5 58.5,58.5C 65.1667,58.5 71.8333,58.5 78.5,58.5C 77.1667,59.1667 75.8333,59.8333 74.5,60.5C 69.1667,60.5 63.8333,60.5 58.5,60.5C 58.8103,81.2125 58.477,101.879 57.5,122.5C 56.199,98.2796 56.199,74.113 57.5,50C 58.0085,48.8315 58.8419,47.9981 60,47.5C 71.2902,47.5341 82.1236,47.8674 92.5,48.5 Z"/></g>
<g><path style="opacity:1" fill="#391103" d="M 290.5,108.5 C 288.598,109.511 286.598,109.678 284.5,109C 283.733,106.947 282.4,105.447 280.5,104.5C 278.527,105.331 276.527,105.498 274.5,105C 271.872,102.246 269.872,99.0794 268.5,95.5C 266.754,97.8541 264.421,98.8541 261.5,98.5C 255.87,97.7081 250.203,97.3748 244.5,97.5C 247.625,96.5206 250.958,96.1872 254.5,96.5C 254.769,94.5714 254.269,92.9047 253,91.5C 248.57,94.631 244.903,93.9643 242,89.5C 239.633,95.2671 235.466,96.9337 229.5,94.5C 227.806,96.5543 226.639,98.8877 226,101.5C 223.667,104.167 221.333,104.167 219,101.5C 218.187,99.5643 217.687,97.5643 217.5,95.5C 218.563,88.8432 222.063,83.8432 228,80.5C 228.873,80.7355 229.707,81.0688 230.5,81.5C 231.245,79.2529 232.578,77.4196 234.5,76C 237.685,76.2845 240.685,75.4511 243.5,73.5C 246.146,70.926 249.313,69.2594 253,68.5C 257.489,70.3121 261.989,72.1454 266.5,74C 266.167,74.3333 265.833,74.6667 265.5,75C 266.784,75.6838 267.951,75.5171 269,74.5C 270.079,76.3937 271.413,76.727 273,75.5C 275.355,77.1886 277.355,79.1886 279,81.5C 279.772,81.3552 280.439,81.0219 281,80.5C 283.031,83.223 284.698,86.223 286,89.5C 287.561,91.9732 289.561,93.9732 292,95.5C 292.574,99.9766 292.074,104.31 290.5,108.5 Z"/></g>
<g><path style="opacity:1" fill="#1e0605" d="M 244.5,97.5 C 239.249,98.4166 234.582,100.583 230.5,104C 226.142,109.583 222.475,115.417 219.5,121.5C 218.172,114.185 216.839,106.851 215.5,99.5C 215.668,97.8295 216.335,96.4961 217.5,95.5C 217.687,97.5643 218.187,99.5643 219,101.5C 221.333,104.167 223.667,104.167 226,101.5C 226.639,98.8877 227.806,96.5543 229.5,94.5C 235.466,96.9337 239.633,95.2671 242,89.5C 244.903,93.9643 248.57,94.631 253,91.5C 254.269,92.9047 254.769,94.5714 254.5,96.5C 250.958,96.1872 247.625,96.5206 244.5,97.5 Z"/></g>
<g><path style="opacity:1" fill="#9d9c9c" d="M 244.5,97.5 C 250.203,97.3748 255.87,97.7081 261.5,98.5C 271.287,103.056 276.953,110.722 278.5,121.5C 278.851,124.238 279.518,126.904 280.5,129.5C 273.689,130.138 271.855,133.471 275,139.5C 276.067,140.191 277.234,140.691 278.5,141C 276.5,142.333 274.5,143.667 272.5,145C 274.093,145.949 275.426,147.115 276.5,148.5C 276.167,148.5 275.833,148.5 275.5,148.5C 275.167,148.5 274.833,148.5 274.5,148.5C 273.833,148.5 273.167,148.5 272.5,148.5C 265.026,142.736 263.026,135.403 266.5,126.5C 268.196,124.315 270.362,122.648 273,121.5C 273.585,115.333 271.418,110.333 266.5,106.5C 247.136,95.0438 232.803,99.3772 223.5,119.5C 223.957,120.298 224.624,120.631 225.5,120.5C 224.029,128.758 223.362,137.091 223.5,145.5C 220.551,144.386 218.385,142.386 217,139.5C 216.333,135.833 216.333,132.167 217,128.5C 217.156,125.809 217.989,123.476 219.5,121.5C 222.475,115.417 226.142,109.583 230.5,104C 234.582,100.583 239.249,98.4166 244.5,97.5 Z"/></g>
<g><path style="opacity:1" fill="#1e0503" d="M 266.5,126.5 C 266.923,124.219 266.256,122.552 264.5,121.5C 260.826,119.779 259.493,116.779 260.5,112.5C 251.78,112.23 243.114,111.563 234.5,110.5C 232.03,114.481 229.03,117.814 225.5,120.5C 224.624,120.631 223.957,120.298 223.5,119.5C 232.803,99.3772 247.136,95.0438 266.5,106.5C 271.418,110.333 273.585,115.333 273,121.5C 270.362,122.648 268.196,124.315 266.5,126.5 Z"/></g>
<g><path style="opacity:1" fill="#200706" d="M 290.5,108.5 C 288.871,114.392 286.871,120.059 284.5,125.5C 282.772,123.774 280.772,122.441 278.5,121.5C 276.953,110.722 271.287,103.056 261.5,98.5C 264.421,98.8541 266.754,97.8541 268.5,95.5C 269.872,99.0794 271.872,102.246 274.5,105C 276.527,105.498 278.527,105.331 280.5,104.5C 282.4,105.447 283.733,106.947 284.5,109C 286.598,109.678 288.598,109.511 290.5,108.5 Z"/></g>
<g><path style="opacity:1" fill="#955129" d="M 264.5,121.5 C 264.923,122.265 265.257,123.098 265.5,124C 261.138,132.147 261.805,139.813 267.5,147C 264.944,152.554 261.277,157.221 256.5,161C 253.445,161.634 250.445,161.468 247.5,160.5C 242.557,157.788 237.724,158.121 233,161.5C 230.629,159.946 228.463,158.279 226.5,156.5C 224.432,153.237 223.432,149.57 223.5,145.5C 223.362,137.091 224.029,128.758 225.5,120.5C 229.03,117.814 232.03,114.481 234.5,110.5C 243.114,111.563 251.78,112.23 260.5,112.5C 259.493,116.779 260.826,119.779 264.5,121.5 Z"/></g>
<g><path style="opacity:1" fill="#310d01" d="M 229.5,122.5 C 231.857,122.337 234.19,122.503 236.5,123C 237.357,123.689 238.023,124.522 238.5,125.5C 234.833,126.833 231.167,126.833 227.5,125.5C 228.193,124.482 228.859,123.482 229.5,122.5 Z"/></g>
<g><path style="opacity:1" fill="#d3d3d3" d="M 68.5,123.5 C 109.833,123.5 151.167,123.5 192.5,123.5C 192.5,124.833 192.5,126.167 192.5,127.5C 155.498,127.667 118.498,127.5 81.5,127C 118.171,126.833 154.838,126.333 191.5,125.5C 150.833,124.167 110.167,124.167 69.5,125.5C 73.1224,126.325 76.789,126.825 80.5,127C 76.5138,127.499 72.5138,127.666 68.5,127.5C 68.5,126.167 68.5,124.833 68.5,123.5 Z"/></g>
<g><path style="opacity:1" fill="#340e01" d="M 248.5,122.5 C 251.99,122.245 254.657,123.578 256.5,126.5C 252.893,127.489 249.226,127.823 245.5,127.5C 245.31,125.041 246.31,123.374 248.5,122.5 Z"/></g>
<g><path style="opacity:1" fill="#878687" d="M 278.5,121.5 C 280.772,122.441 282.772,123.774 284.5,125.5C 287.057,131.496 286.89,137.496 284,143.5C 282.143,146.2 279.643,147.866 276.5,148.5C 275.426,147.115 274.093,145.949 272.5,145C 274.5,143.667 276.5,142.333 278.5,141C 277.234,140.691 276.067,140.191 275,139.5C 271.855,133.471 273.689,130.138 280.5,129.5C 279.518,126.904 278.851,124.238 278.5,121.5 Z"/></g>
<g><path style="opacity:1" fill="#1d1714" d="M 230.5,132.5 C 235.833,134.167 235.833,135.833 230.5,137.5C 230.5,135.833 230.5,134.167 230.5,132.5 Z"/></g>
<g><path style="opacity:1" fill="#18120f" d="M 248.5,133.5 C 249.5,133.5 250.5,133.5 251.5,133.5C 251.884,135.665 251.217,137.332 249.5,138.5C 248.548,136.955 248.215,135.288 248.5,133.5 Z"/></g>
<g><path style="opacity:0.999" fill="#c0c1c2" d="M 299.5,108.5 C 321.66,107.503 343.994,107.169 366.5,107.5C 366.822,120.08 366.489,132.58 365.5,145C 342.833,145.667 320.167,145.667 297.5,145C 296.346,133.243 296.179,121.409 297,109.5C 297.383,108.944 297.883,108.611 298.5,108.5C 298.5,120.167 298.5,131.833 298.5,143.5C 320.5,143.5 342.5,143.5 364.5,143.5C 364.5,131.833 364.5,120.167 364.5,108.5C 342.833,108.5 321.167,108.5 299.5,108.5 Z"/></g>
<g><path style="opacity:1" fill="#f0f0f0" d="M 298.5,108.5 C 298.833,108.5 299.167,108.5 299.5,108.5C 321.167,108.5 342.833,108.5 364.5,108.5C 364.5,120.167 364.5,131.833 364.5,143.5C 342.5,143.5 320.5,143.5 298.5,143.5C 298.5,131.833 298.5,120.167 298.5,108.5 Z"/></g>
<g><path style="opacity:1" fill="#9e9e9d" d="M 325.5,122.5 C 326.117,122.611 326.617,122.944 327,123.5C 327.498,126.817 327.665,130.15 327.5,133.5C 329.5,133.5 331.5,133.5 333.5,133.5C 334.085,119.219 335.085,119.553 336.5,134.5C 336.679,137.131 336.013,139.465 334.5,141.5C 333.534,139.604 333.201,137.604 333.5,135.5C 331.5,135.5 329.5,135.5 327.5,135.5C 327.785,137.288 327.452,138.955 326.5,140.5C 325.914,140.291 325.414,139.957 325,139.5C 324.215,133.751 324.382,128.084 325.5,122.5 Z"/></g>
<g><path style="opacity:1" fill="#9c9c9b" d="M 341.5,122.5 C 349.6,123.088 352.1,127.088 349,134.5C 347.416,135.861 345.582,136.528 343.5,136.5C 343.762,137.978 343.429,139.311 342.5,140.5C 341.504,134.537 341.171,128.537 341.5,122.5 Z"/></g>
<g><path style="opacity:1" fill="#e6e6e6" d="M 343.5,125.5 C 348.287,126.726 349.287,129.226 346.5,133C 345.552,133.483 344.552,133.649 343.5,133.5C 343.5,130.833 343.5,128.167 343.5,125.5 Z"/></g>
<g><path style="opacity:1" fill="#ababaa" d="M 312.5,120.5 C 319.87,123.028 321.203,127.361 316.5,133.5C 315.311,134.429 313.978,134.762 312.5,134.5C 312.808,136.924 312.474,139.257 311.5,141.5C 309.581,135.299 309.081,128.966 310,122.5C 310.995,121.934 311.828,121.267 312.5,120.5 Z"/></g>
<g><path style="opacity:1" fill="#b4b5b7" d="M 57.5,124.5 C 58.4907,130.979 58.824,137.646 58.5,144.5C 105.833,144.5 153.167,144.5 200.5,144.5C 177.176,145.833 153.51,146.5 129.5,146.5C 105.833,146.333 82.1667,146.167 58.5,146C 57.8333,143 57.1667,140 56.5,137C 56.8866,132.73 57.2199,128.564 57.5,124.5 Z"/></g>
<g><path style="opacity:1" fill="#894424" d="M 264.5,121.5 C 266.256,122.552 266.923,124.219 266.5,126.5C 263.026,135.403 265.026,142.736 272.5,148.5C 271.384,161.803 264.384,170.636 251.5,175C 245.969,176.504 240.469,178.004 235,179.5C 233.843,183.346 235.009,186.179 238.5,188C 245.602,189.053 252.602,189.887 259.5,190.5C 251.058,193.625 242.392,194.291 233.5,192.5C 233.5,191.833 233.167,191.5 232.5,191.5C 229.805,188.474 227.138,185.474 224.5,182.5C 224.019,175.241 225.019,168.241 227.5,161.5C 227.435,161.062 227.601,160.728 228,160.5C 237.126,170.729 247.626,172.229 259.5,165C 262,162.5 264.5,160 267,157.5C 268.59,155.35 269.257,153.017 269,150.5C 266.215,155.619 262.382,159.786 257.5,163C 254.833,163.667 252.167,163.667 249.5,163C 248.619,162.292 247.953,161.458 247.5,160.5C 250.445,161.468 253.445,161.634 256.5,161C 261.277,157.221 264.944,152.554 267.5,147C 261.805,139.813 261.138,132.147 265.5,124C 265.257,123.098 264.923,122.265 264.5,121.5 Z"/></g>
<g><path style="opacity:1" fill="#e1d4c9" d="M 242.5,149.5 C 247.371,149.578 247.371,150.745 242.5,153C 239.672,153.969 237.338,153.303 235.5,151C 238.036,150.814 240.369,150.314 242.5,149.5 Z"/></g>
<g><path style="opacity:0.986" fill="#363034" d="M 274.5,148.5 C 274.833,148.5 275.167,148.5 275.5,148.5C 275.201,150.604 275.534,152.604 276.5,154.5C 280.777,153.394 285.11,153.228 289.5,154C 291.838,155.831 293.838,157.998 295.5,160.5C 295.953,161.458 296.619,162.292 297.5,163C 310.177,165.717 322.511,169.383 334.5,174C 337.898,175.357 340.898,177.19 343.5,179.5C 342.494,179.938 342.494,180.604 343.5,181.5C 328.533,177.131 313.2,174.798 297.5,174.5C 295.708,174.634 294.042,174.301 292.5,173.5C 289.35,168.185 285.017,164.019 279.5,161C 277.975,159.991 276.308,159.491 274.5,159.5C 274.695,156.044 274.695,152.378 274.5,148.5 Z"/></g>
<g><path style="opacity:0.95" fill="#3c3b3c" d="M 337.5,154.5 C 336.448,154.351 335.448,154.517 334.5,155C 338.408,157.032 341.575,159.866 344,163.5C 346.784,169.97 348.951,176.636 350.5,183.5C 354.938,186.444 358.104,190.444 360,195.5C 360.495,193.527 360.662,191.527 360.5,189.5C 361.487,194.305 361.821,199.305 361.5,204.5C 357.693,196.686 352.693,189.686 346.5,183.5C 347.525,183.103 347.692,182.437 347,181.5C 345.887,180.695 344.721,180.028 343.5,179.5C 340.898,177.19 337.898,175.357 334.5,174C 322.511,169.383 310.177,165.717 297.5,163C 296.619,162.292 295.953,161.458 295.5,160.5C 297.764,161.219 300.097,161.552 302.5,161.5C 302.318,159.409 302.652,157.409 303.5,155.5C 314.937,153.438 326.27,153.105 337.5,154.5 Z"/></g>
<g><path style="opacity:0.994" fill="#4d4d4e" d="M 337.5,154.5 C 340.91,154.457 344.243,154.957 347.5,156C 357.02,165.046 361.353,176.213 360.5,189.5C 360.662,191.527 360.495,193.527 360,195.5C 358.104,190.444 354.938,186.444 350.5,183.5C 348.951,176.636 346.784,169.97 344,163.5C 341.575,159.866 338.408,157.032 334.5,155C 335.448,154.517 336.448,154.351 337.5,154.5 Z"/></g>
<g><path style="opacity:0.969" fill="#acadb0" d="M 117.5,153.5 C 123.919,153.063 126.085,155.729 124,161.5C 122.916,160.335 122.083,159.002 121.5,157.5C 120.635,156.417 119.635,156.251 118.5,157C 116.745,159.93 115.578,163.097 115,166.5C 113.13,161.647 113.963,157.314 117.5,153.5 Z"/></g>
<g><path style="opacity:1" fill="#9a552b" d="M 272.5,148.5 C 273.167,148.5 273.833,148.5 274.5,148.5C 274.695,152.378 274.695,156.044 274.5,159.5C 274.198,162.059 274.532,164.393 275.5,166.5C 275.876,171.894 274.876,176.894 272.5,181.5C 268.442,184.89 264.109,187.89 259.5,190.5C 252.602,189.887 245.602,189.053 238.5,188C 235.009,186.179 233.843,183.346 235,179.5C 240.469,178.004 245.969,176.504 251.5,175C 264.384,170.636 271.384,161.803 272.5,148.5 Z"/></g>
<g><path style="opacity:1" fill="#300d02" d="M 227.5,161.5 C 226.833,161.5 226.167,161.5 225.5,161.5C 226.89,159.831 227.223,158.164 226.5,156.5C 228.463,158.279 230.629,159.946 233,161.5C 237.724,158.121 242.557,157.788 247.5,160.5C 247.953,161.458 248.619,162.292 249.5,163C 252.167,163.667 254.833,163.667 257.5,163C 262.382,159.786 266.215,155.619 269,150.5C 269.257,153.017 268.59,155.35 267,157.5C 264.5,160 262,162.5 259.5,165C 247.626,172.229 237.126,170.729 228,160.5C 227.601,160.728 227.435,161.062 227.5,161.5 Z"/></g>
<g><path style="opacity:1" fill="#a7a8ac" d="M 114.5,169.5 C 114.735,168.903 115.235,168.57 116,168.5C 117.626,169.289 119.126,170.289 120.5,171.5C 121.814,170.687 122.981,169.687 124,168.5C 125.798,171.579 124.798,173.579 121,174.5C 118.062,173.717 115.896,172.05 114.5,169.5 Z"/></g>
<g><path style="opacity:1" fill="#448cfb" d="M 297.5,175.5 C 300.789,176.374 304.123,177.041 307.5,177.5C 295.251,199.667 282.751,221.667 270,243.5C 271.997,234.179 274.33,224.846 277,215.5C 287.584,214.751 289.084,210.584 281.5,203C 284.234,202.79 286.734,201.956 289,200.5C 292.134,192.263 294.968,183.93 297.5,175.5 Z"/></g>
<g><path style="opacity:0.995" fill="#4f4f4f" d="M 174.5,176.5 C 180.833,177.167 187.167,177.833 193.5,178.5C 191.5,180.167 189.5,181.833 187.5,183.5C 180.773,184.723 173.939,185.389 167,185.5C 120.172,184.715 73.3391,184.215 26.5,184C 25.2532,182.542 25.2532,181.042 26.5,179.5C 27.9492,178.828 29.2825,178.161 30.5,177.5C 78.6139,177.407 126.614,177.074 174.5,176.5 Z"/></g>
<g><path style="opacity:1" fill="#448dfc" d="M 310.5,177.5 C 315.805,178.194 321.138,178.528 326.5,178.5C 307.303,216.109 288.303,253.776 269.5,291.5C 265.79,293.136 261.79,293.802 257.5,293.5C 260.171,278.979 263.671,264.646 268,250.5C 282.178,226.139 296.345,201.806 310.5,177.5 Z"/></g>
<g><path style="opacity:1" fill="#448dfc" d="M 328.5,179.5 C 338.169,182.509 345.836,188.175 351.5,196.5C 340.828,214.019 330.328,231.686 320,249.5C 318.619,245.796 316.786,242.463 314.5,239.5C 313.617,236.296 311.95,233.629 309.5,231.5C 307.441,230.354 306.441,231.187 306.5,234C 309.889,253.629 305.556,271.129 293.5,286.5C 287.023,288.452 280.357,290.119 273.5,291.5C 273.167,291.5 272.833,291.5 272.5,291.5C 290.959,254.162 309.626,216.829 328.5,179.5 Z"/></g>
<g><path style="opacity:1" fill="#5697ef" d="M 297.5,175.5 C 297.5,175.167 297.5,174.833 297.5,174.5C 313.2,174.798 328.533,177.131 343.5,181.5C 345.027,181.427 346.027,182.094 346.5,183.5C 352.693,189.686 357.693,196.686 361.5,204.5C 369.139,217.78 375.139,231.78 379.5,246.5C 379.936,249.364 379.103,251.697 377,253.5C 375.317,250.166 373.817,246.833 372.5,243.5C 371.071,237.871 369.071,232.537 366.5,227.5C 366.672,226.508 366.338,225.842 365.5,225.5C 362.01,216.525 358.01,207.858 353.5,199.5C 352.833,198.5 352.167,197.5 351.5,196.5C 345.836,188.175 338.169,182.509 328.5,179.5C 328.158,178.662 327.492,178.328 326.5,178.5C 321.138,178.528 315.805,178.194 310.5,177.5C 309.5,177.5 308.5,177.5 307.5,177.5C 304.123,177.041 300.789,176.374 297.5,175.5 Z"/></g>
<g><path style="opacity:1" fill="#1e1d1f" d="M 193.5,178.5 C 195.051,191.139 196.384,203.805 197.5,216.5C 197.956,220.664 198.622,224.664 199.5,228.5C 200.056,240.631 201.39,252.631 203.5,264.5C 203.5,265.833 203.5,267.167 203.5,268.5C 203.75,271.214 203.917,273.881 204,276.5C 201.63,279.039 199.13,281.372 196.5,283.5C 196.01,268.281 194.677,253.281 192.5,238.5C 191.014,220.153 189.347,201.82 187.5,183.5C 189.5,181.833 191.5,180.167 193.5,178.5 Z"/></g>
<g><path style="opacity:0.999" fill="#352f33" d="M 93.5,261.5 C 92.7822,263.137 92.6155,264.803 93,266.5C 94.3726,263.588 95.8726,260.754 97.5,258C 108.912,257.179 119.578,257.345 129.5,258.5C 120.475,258.168 111.475,258.502 102.5,259.5C 95.4521,275.361 89.7854,291.694 85.5,308.5C 80.9677,308.818 76.6344,308.485 72.5,307.5C 76.3917,299.719 79.725,291.719 82.5,283.5C 67.5236,283.341 52.5236,283.675 37.5,284.5C 35.626,284.61 34.126,283.944 33,282.5C 29.0566,250.175 25.2232,217.842 21.5,185.5C 23.0861,184.587 24.5861,184.587 26,185.5C 32.0746,219.492 49.9079,245.326 79.5,263C 83.2153,264.295 86.8819,265.462 90.5,266.5C 90.2729,264.067 91.2729,262.401 93.5,261.5 Z"/></g>
<g><path style="opacity:1" fill="#3c3b3c" d="M 30.5,177.5 C 29.2825,178.161 27.9492,178.828 26.5,179.5C 25.2532,181.042 25.2532,182.542 26.5,184C 73.3391,184.215 120.172,184.715 167,185.5C 173.939,185.389 180.773,184.723 187.5,183.5C 189.347,201.82 191.014,220.153 192.5,238.5C 191.681,242.853 189.348,246.353 185.5,249C 170.836,260.413 154.336,267.913 136,271.5C 134.293,271.492 132.793,271.158 131.5,270.5C 132.702,266.422 134.202,262.422 136,258.5C 137.667,257.833 139.333,257.167 141,256.5C 141.822,253.883 142.322,251.216 142.5,248.5C 125.497,248.333 108.497,248.5 91.5,249C 89.6787,251.456 89.012,254.289 89.5,257.5C 91.604,257.201 93.604,257.534 95.5,258.5C 94.8075,259.518 94.1408,260.518 93.5,261.5C 91.2729,262.401 90.2729,264.067 90.5,266.5C 86.8819,265.462 83.2153,264.295 79.5,263C 49.9079,245.326 32.0746,219.492 26,185.5C 24.5861,184.587 23.0861,184.587 21.5,185.5C 22.0187,179.979 25.0187,177.312 30.5,177.5 Z"/></g>
<g><path style="opacity:1" fill="#438af7" d="M 202.5,172.5 C 203.765,173.514 204.431,175.014 204.5,177C 204.174,184.403 203.008,190.903 201,196.5C 200.333,199.167 200.333,201.833 201,204.5C 203.155,205.683 205.155,205.35 207,203.5C 207.167,204 207.333,204.5 207.5,205C 206.577,207.94 205.577,210.773 204.5,213.5C 206.604,213.201 208.604,213.534 210.5,214.5C 212.016,217.531 213.516,220.531 215,223.5C 216.78,235.016 218.614,246.516 220.5,258C 219.922,259.811 219.422,261.645 219,263.5C 212.332,247.504 205.165,231.838 197.5,216.5C 196.384,203.805 195.051,191.139 193.5,178.5C 187.167,177.833 180.833,177.167 174.5,176.5C 183.627,173.859 192.961,172.525 202.5,172.5 Z"/></g>
<g><path style="opacity:1" fill="#5295f1" d="M 274.5,159.5 C 276.308,159.491 277.975,159.991 279.5,161C 285.017,164.019 289.35,168.185 292.5,173.5C 290.954,182.014 288.62,190.347 285.5,198.5C 275.274,198.435 273.774,201.435 281,207.5C 281.483,208.448 281.649,209.448 281.5,210.5C 278.289,210.012 275.456,210.679 273,212.5C 268.004,229.492 263.504,246.492 259.5,263.5C 260.094,257.49 260.76,251.49 261.5,245.5C 264.8,233.973 267.967,222.306 271,210.5C 272.351,208.981 273.851,207.648 275.5,206.5C 274.855,205.354 274.022,204.354 273,203.5C 272.333,202.5 272.333,201.5 273,200.5C 276.849,198.705 280.849,197.371 285,196.5C 287.648,188.059 288.482,179.725 287.5,171.5C 283.859,168.195 280.192,164.862 276.5,161.5C 275.548,163.045 275.215,164.712 275.5,166.5C 274.532,164.393 274.198,162.059 274.5,159.5 Z"/></g>
<g><path style="opacity:1" fill="#5599f7" d="M 208.5,169.5 C 210.048,169.821 210.715,170.821 210.5,172.5C 208.46,180.734 207.294,189.068 207,197.5C 210.062,194.885 213.562,193.219 217.5,192.5C 217.411,197.769 215.744,202.436 212.5,206.5C 215.688,206.856 217.855,208.523 219,211.5C 220.482,218.092 221.316,224.759 221.5,231.5C 219.874,224.449 217.708,217.449 215,210.5C 212.919,209.667 210.752,209.667 208.5,210.5C 210.105,206.034 212.105,201.701 214.5,197.5C 214.167,196.833 213.833,196.167 213.5,195.5C 210.381,197.726 207.048,199.393 203.5,200.5C 204.179,191.069 205.512,181.736 207.5,172.5C 207.376,171.893 207.043,171.56 206.5,171.5C 206.833,170.5 207.5,169.833 208.5,169.5 Z"/></g>
<g><path style="opacity:1" fill="#4080eb" d="M 261.5,245.5 C 262.013,223.567 265.679,202.234 272.5,181.5C 274.876,176.894 275.876,171.894 275.5,166.5C 275.215,164.712 275.548,163.045 276.5,161.5C 280.192,164.862 283.859,168.195 287.5,171.5C 288.482,179.725 287.648,188.059 285,196.5C 280.849,197.371 276.849,198.705 273,200.5C 272.333,201.5 272.333,202.5 273,203.5C 274.022,204.354 274.855,205.354 275.5,206.5C 273.851,207.648 272.351,208.981 271,210.5C 267.967,222.306 264.8,233.973 261.5,245.5 Z"/></g>
<g><path style="opacity:1" fill="#448dfc" d="M 353.5,199.5 C 358.01,207.858 362.01,216.525 365.5,225.5C 356.525,237.427 348.525,250.094 341.5,263.5C 327.314,269.972 320.814,265.639 322,250.5C 332.297,233.371 342.797,216.371 353.5,199.5 Z"/></g>
<g><path style="opacity:1" fill="#fecf57" d="M 245.5,291.5 C 242.999,290.054 240.333,289.554 237.5,290C 236.144,293.653 237.144,296.653 240.5,299C 237.122,302.015 233.456,304.515 229.5,306.5C 227.956,306.297 226.622,305.63 225.5,304.5C 224.425,300.233 223.758,295.9 223.5,291.5C 226.377,269.319 229.377,247.152 232.5,225C 231.64,217.489 231.14,209.989 231,202.5C 235.576,205.665 240.41,207.332 245.5,207.5C 249.181,206.73 252.848,205.897 256.5,205C 259.525,203.312 262.525,201.979 265.5,201C 264.286,203.351 263.452,205.851 263,208.5C 258.94,236.247 255.774,263.913 253.5,291.5C 250.833,291.5 248.167,291.5 245.5,291.5 Z"/></g>
<g><path style="opacity:1" fill="#396fd9" d="M 292.5,173.5 C 294.042,174.301 295.708,174.634 297.5,174.5C 297.5,174.833 297.5,175.167 297.5,175.5C 294.968,183.93 292.134,192.263 289,200.5C 286.734,201.956 284.234,202.79 281.5,203C 289.084,210.584 287.584,214.751 277,215.5C 274.33,224.846 271.997,234.179 270,243.5C 282.751,221.667 295.251,199.667 307.5,177.5C 308.5,177.5 309.5,177.5 310.5,177.5C 296.345,201.806 282.178,226.139 268,250.5C 263.671,264.646 260.171,278.979 257.5,293.5C 256.833,293.5 256.5,293.167 256.5,292.5C 257.089,282.789 258.089,273.122 259.5,263.5C 263.504,246.492 268.004,229.492 273,212.5C 275.456,210.679 278.289,210.012 281.5,210.5C 281.649,209.448 281.483,208.448 281,207.5C 273.774,201.435 275.274,198.435 285.5,198.5C 288.62,190.347 290.954,182.014 292.5,173.5 Z"/></g>
<g><path style="opacity:1" fill="#504f50" d="M 109.5,212.5 C 117.861,212.213 121.361,216.213 120,224.5C 117.784,229.369 113.951,231.203 108.5,230C 101.642,223.676 101.976,217.843 109.5,212.5 Z"/></g>
<g><path style="opacity:1" fill="#eaaa4f" d="M 272.5,181.5 C 265.679,202.234 262.013,223.567 261.5,245.5C 260.76,251.49 260.094,257.49 259.5,263.5C 258.089,273.122 257.089,282.789 256.5,292.5C 252.629,292.815 248.962,292.482 245.5,291.5C 248.167,291.5 250.833,291.5 253.5,291.5C 255.774,263.913 258.94,236.247 263,208.5C 263.452,205.851 264.286,203.351 265.5,201C 262.525,201.979 259.525,203.312 256.5,205C 252.848,205.897 249.181,206.73 245.5,207.5C 240.41,207.332 235.576,205.665 231,202.5C 231.14,209.989 231.64,217.489 232.5,225C 229.377,247.152 226.377,269.319 223.5,291.5C 223.758,295.9 224.425,300.233 225.5,304.5C 226.622,305.63 227.956,306.297 229.5,306.5C 229.5,306.833 229.5,307.167 229.5,307.5C 228.069,307.881 227.236,308.881 227,310.5C 226.259,309.359 225.425,309.359 224.5,310.5C 223.614,309.675 223.281,308.675 223.5,307.5C 221.167,307.5 218.833,307.5 216.5,307.5C 218.681,286.101 221.514,264.767 225,243.5C 225.37,223.164 225.204,202.831 224.5,182.5C 227.138,185.474 229.805,188.474 232.5,191.5C 230.956,191.297 229.622,190.63 228.5,189.5C 226.948,192.567 227.615,195.067 230.5,197C 242.266,202.26 253.599,201.593 264.5,195C 266.661,192.851 267.828,190.351 268,187.5C 259.247,194.147 249.414,196.647 238.5,195C 236.347,194.901 234.681,194.067 233.5,192.5C 242.392,194.291 251.058,193.625 259.5,190.5C 264.109,187.89 268.442,184.89 272.5,181.5 Z"/></g>
<g><path style="opacity:1" fill="#fdcd56" d="M 232.5,191.5 C 233.167,191.5 233.5,191.833 233.5,192.5C 234.681,194.067 236.347,194.901 238.5,195C 249.414,196.647 259.247,194.147 268,187.5C 267.828,190.351 266.661,192.851 264.5,195C 253.599,201.593 242.266,202.26 230.5,197C 227.615,195.067 226.948,192.567 228.5,189.5C 229.622,190.63 230.956,191.297 232.5,191.5 Z"/></g>
<g><path style="opacity:1" fill="#3e70d6" d="M 225.5,161.5 C 226.167,161.5 226.833,161.5 227.5,161.5C 225.019,168.241 224.019,175.241 224.5,182.5C 225.204,202.831 225.37,223.164 225,243.5C 221.514,264.767 218.681,286.101 216.5,307.5C 216.582,309.252 215.749,310.252 214,310.5C 212.97,310.164 212.47,309.497 212.5,308.5C 213.86,303.869 214.86,299.036 215.5,294C 212.34,284.978 208.34,276.478 203.5,268.5C 203.5,267.167 203.5,265.833 203.5,264.5C 207.892,272.281 212.059,280.281 216,288.5C 216.354,281.937 217.187,275.437 218.5,269C 212.811,254.306 206.644,239.806 200,225.5C 199.517,226.448 199.351,227.448 199.5,228.5C 198.622,224.664 197.956,220.664 197.5,216.5C 205.165,231.838 212.332,247.504 219,263.5C 219.422,261.645 219.922,259.811 220.5,258C 218.614,246.516 216.78,235.016 215,223.5C 213.516,220.531 212.016,217.531 210.5,214.5C 208.604,213.534 206.604,213.201 204.5,213.5C 205.577,210.773 206.577,207.94 207.5,205C 207.333,204.5 207.167,204 207,203.5C 205.155,205.35 203.155,205.683 201,204.5C 200.333,201.833 200.333,199.167 201,196.5C 203.008,190.903 204.174,184.403 204.5,177C 204.431,175.014 203.765,173.514 202.5,172.5C 203.568,171.566 204.901,171.232 206.5,171.5C 207.043,171.56 207.376,171.893 207.5,172.5C 205.512,181.736 204.179,191.069 203.5,200.5C 207.048,199.393 210.381,197.726 213.5,195.5C 213.833,196.167 214.167,196.833 214.5,197.5C 212.105,201.701 210.105,206.034 208.5,210.5C 210.752,209.667 212.919,209.667 215,210.5C 217.708,217.449 219.874,224.449 221.5,231.5C 222.659,221.342 222.825,211.008 222,200.5C 218.238,191.026 214.405,181.693 210.5,172.5C 210.715,170.821 210.048,169.821 208.5,169.5C 209.514,168.326 210.847,167.66 212.5,167.5C 216.586,165.13 220.919,163.13 225.5,161.5 Z"/></g>
<g><path style="opacity:1" fill="#448cfa" d="M 210.5,172.5 C 214.405,181.693 218.238,191.026 222,200.5C 222.825,211.008 222.659,221.342 221.5,231.5C 221.316,224.759 220.482,218.092 219,211.5C 217.855,208.523 215.688,206.856 212.5,206.5C 215.744,202.436 217.411,197.769 217.5,192.5C 213.562,193.219 210.062,194.885 207,197.5C 207.294,189.068 208.46,180.734 210.5,172.5 Z"/></g>
<g><path style="opacity:1" fill="#438cfa" d="M 212.5,167.5 C 214.167,167.5 215.833,167.5 217.5,167.5C 218.36,170.911 219.526,174.244 221,177.5C 221.667,182.5 221.667,187.5 221,192.5C 217.815,184.803 214.649,177.137 211.5,169.5C 211.863,168.817 212.196,168.15 212.5,167.5 Z"/></g>
<g><path style="opacity:1" fill="#4274df" d="M 309.5,231.5 C 312.701,239.921 314.534,248.588 315,257.5C 309.33,266.176 303.663,274.843 298,283.5C 297.308,284.437 297.475,285.103 298.5,285.5C 297.081,286.451 295.415,286.784 293.5,286.5C 305.556,271.129 309.889,253.629 306.5,234C 306.441,231.187 307.441,230.354 309.5,231.5 Z"/></g>
<g><path style="opacity:1" fill="#448dfc" d="M 366.5,227.5 C 369.071,232.537 371.071,237.871 372.5,243.5C 370.091,247.761 367.424,251.927 364.5,256C 358.407,258.571 352.24,261.071 346,263.5C 345.5,263.167 345,262.833 344.5,262.5C 351.108,250.263 358.441,238.597 366.5,227.5 Z"/></g>
<g><path style="opacity:1" fill="#448cfb" d="M 203.5,264.5 C 201.39,252.631 200.056,240.631 199.5,228.5C 199.351,227.448 199.517,226.448 200,225.5C 206.644,239.806 212.811,254.306 218.5,269C 217.187,275.437 216.354,281.937 216,288.5C 212.059,280.281 207.892,272.281 203.5,264.5 Z"/></g>
<g><path style="opacity:1" fill="#362f33" d="M 192.5,238.5 C 194.677,253.281 196.01,268.281 196.5,283.5C 195.791,284.404 194.791,284.737 193.5,284.5C 191.833,284.5 190.167,284.5 188.5,284.5C 187.167,284.5 185.833,284.5 184.5,284.5C 170.323,284.171 156.323,284.504 142.5,285.5C 137.54,285.435 132.54,285.101 127.5,284.5C 126.624,284.631 125.957,284.298 125.5,283.5C 127.522,279.064 129.522,274.731 131.5,270.5C 132.793,271.158 134.293,271.492 136,271.5C 154.336,267.913 170.836,260.413 185.5,249C 189.348,246.353 191.681,242.853 192.5,238.5 Z"/></g>
<g><path style="opacity:1" fill="#3c72dc" d="M 351.5,196.5 C 352.167,197.5 352.833,198.5 353.5,199.5C 342.797,216.371 332.297,233.371 322,250.5C 320.814,265.639 327.314,269.972 341.5,263.5C 348.525,250.094 356.525,237.427 365.5,225.5C 366.338,225.842 366.672,226.508 366.5,227.5C 358.441,238.597 351.108,250.263 344.5,262.5C 345,262.833 345.5,263.167 346,263.5C 352.24,261.071 358.407,258.571 364.5,256C 367.424,251.927 370.091,247.761 372.5,243.5C 373.817,246.833 375.317,250.166 377,253.5C 379.103,251.697 379.936,249.364 379.5,246.5C 382.103,250.268 382.769,254.268 381.5,258.5C 381.785,256.712 381.452,255.045 380.5,253.5C 364.995,264.548 347.662,270.382 328.5,271C 336.359,273.98 344.359,274.313 352.5,272C 360.263,269.248 367.93,266.414 375.5,263.5C 364.444,270.863 352.11,275.029 338.5,276C 334.179,276.499 329.846,276.666 325.5,276.5C 325.5,278.167 325.5,279.833 325.5,281.5C 317.124,282.575 308.79,283.909 300.5,285.5C 305.563,277.054 310.896,268.72 316.5,260.5C 318.451,265.305 319.618,270.305 320,275.5C 321.133,277.211 322.633,277.711 324.5,277C 321.594,275.27 320.427,272.77 321,269.5C 321.893,270.081 322.893,270.415 324,270.5C 328.144,269.836 332.311,269.336 336.5,269C 330.917,268.809 325.417,268.309 320,267.5C 317.92,262.391 318.087,257.391 320.5,252.5C 319.831,249.972 318.998,249.972 318,252.5C 316.362,248.278 315.195,243.945 314.5,239.5C 316.786,242.463 318.619,245.796 320,249.5C 330.328,231.686 340.828,214.019 351.5,196.5 Z"/></g>
<g><path style="opacity:1" fill="#1e1d1e" d="M 131.5,270.5 C 129.522,274.731 127.522,279.064 125.5,283.5C 125.957,284.298 126.624,284.631 127.5,284.5C 127.158,285.338 126.492,285.672 125.5,285.5C 121.849,293.427 118.183,301.427 114.5,309.5C 98.9312,310.823 83.2645,310.823 67.5,309.5C 69.0276,308.691 70.6943,308.024 72.5,307.5C 76.6344,308.485 80.9677,308.818 85.5,308.5C 93.4197,308.815 101.253,308.482 109,307.5C 116.132,291.264 122.965,274.931 129.5,258.5C 119.578,257.345 108.912,257.179 97.5,258C 95.8726,260.754 94.3726,263.588 93,266.5C 92.6155,264.803 92.7822,263.137 93.5,261.5C 94.1408,260.518 94.8075,259.518 95.5,258.5C 93.604,257.534 91.604,257.201 89.5,257.5C 89.012,254.289 89.6787,251.456 91.5,249C 108.497,248.5 125.497,248.333 142.5,248.5C 142.322,251.216 141.822,253.883 141,256.5C 139.333,257.167 137.667,257.833 136,258.5C 134.202,262.422 132.702,266.422 131.5,270.5 Z"/></g>
<g><path style="opacity:1" fill="#3b3b3b" d="M 129.5,258.5 C 122.965,274.931 116.132,291.264 109,307.5C 101.253,308.482 93.4197,308.815 85.5,308.5C 89.7854,291.694 95.4521,275.361 102.5,259.5C 111.475,258.502 120.475,258.168 129.5,258.5 Z"/></g>
<g><path style="opacity:1" fill="#2772dd" d="M 326.5,178.5 C 327.492,178.328 328.158,178.662 328.5,179.5C 309.626,216.829 290.959,254.162 272.5,291.5C 271.5,291.5 270.5,291.5 269.5,291.5C 288.303,253.776 307.303,216.109 326.5,178.5 Z"/></g>
<g><path style="opacity:1" fill="#864425" d="M 378.5,261.5 C 377.785,264.76 377.785,268.093 378.5,271.5C 377.732,270.737 377.232,269.737 377,268.5C 376.505,270.473 376.338,272.473 376.5,274.5C 366.629,276.195 356.962,278.195 347.5,280.5C 340.124,280.274 332.791,280.608 325.5,281.5C 325.5,279.833 325.5,278.167 325.5,276.5C 329.846,276.666 334.179,276.499 338.5,276C 352.11,275.029 364.444,270.863 375.5,263.5C 376.5,262.833 377.5,262.167 378.5,261.5 Z"/></g>
<g><path style="opacity:1" fill="#448cfa" d="M 381.5,258.5 C 380.833,259.833 379.833,260.833 378.5,261.5C 377.5,262.167 376.5,262.833 375.5,263.5C 367.93,266.414 360.263,269.248 352.5,272C 344.359,274.313 336.359,273.98 328.5,271C 347.662,270.382 364.995,264.548 380.5,253.5C 381.452,255.045 381.785,256.712 381.5,258.5 Z"/></g>
<g><path style="opacity:1" fill="#99542a" d="M 378.5,271.5 C 379.373,275.768 379.706,280.102 379.5,284.5C 379.179,286.048 378.179,286.715 376.5,286.5C 373.335,298.177 366.002,306.343 354.5,311C 338.32,314.109 321.987,315.275 305.5,314.5C 302.609,308.213 297.609,305.213 290.5,305.5C 286.446,306.024 282.446,306.857 278.5,308C 277.556,310.719 277.223,313.552 277.5,316.5C 273.5,316.5 269.5,316.5 265.5,316.5C 264.631,314.283 264.298,311.95 264.5,309.5C 260.354,309.553 256.521,308.553 253,306.5C 250.816,306.885 248.982,307.885 247.5,309.5C 244.988,308.201 242.321,307.201 239.5,306.5C 238.148,307.518 237.148,308.851 236.5,310.5C 234.929,307.907 232.596,306.907 229.5,307.5C 229.5,307.167 229.5,306.833 229.5,306.5C 233.456,304.515 237.122,302.015 240.5,299C 237.144,296.653 236.144,293.653 237.5,290C 240.333,289.554 242.999,290.054 245.5,291.5C 248.962,292.482 252.629,292.815 256.5,292.5C 256.5,293.167 256.833,293.5 257.5,293.5C 261.79,293.802 265.79,293.136 269.5,291.5C 270.5,291.5 271.5,291.5 272.5,291.5C 272.833,291.5 273.167,291.5 273.5,291.5C 273.369,292.376 273.702,293.043 274.5,293.5C 287.58,291.097 300.58,288.264 313.5,285C 326.076,283.059 338.743,282.059 351.5,282C 349.942,281.79 348.609,281.29 347.5,280.5C 356.962,278.195 366.629,276.195 376.5,274.5C 376.338,272.473 376.505,270.473 377,268.5C 377.232,269.737 377.732,270.737 378.5,271.5 Z"/></g>
<g><path style="opacity:1" fill="#2a5ec5" d="M 309.5,231.5 C 311.95,233.629 313.617,236.296 314.5,239.5C 315.195,243.945 316.362,248.278 318,252.5C 318.998,249.972 319.831,249.972 320.5,252.5C 318.087,257.391 317.92,262.391 320,267.5C 325.417,268.309 330.917,268.809 336.5,269C 332.311,269.336 328.144,269.836 324,270.5C 322.893,270.415 321.893,270.081 321,269.5C 320.427,272.77 321.594,275.27 324.5,277C 322.633,277.711 321.133,277.211 320,275.5C 319.618,270.305 318.451,265.305 316.5,260.5C 310.896,268.72 305.563,277.054 300.5,285.5C 299.833,285.5 299.167,285.5 298.5,285.5C 297.475,285.103 297.308,284.437 298,283.5C 303.663,274.843 309.33,266.176 315,257.5C 314.534,248.588 312.701,239.921 309.5,231.5 Z"/></g>
<g><path style="opacity:1" fill="#955028" d="M 184.5,284.5 C 182.183,290.443 179.849,296.443 177.5,302.5C 179.404,303.766 180.737,305.433 181.5,307.5C 178.843,307.162 176.51,307.829 174.5,309.5C 171.5,306.833 168.5,306.833 165.5,309.5C 162.578,306.966 159.578,306.966 156.5,309.5C 155.476,308.147 154.143,307.48 152.5,307.5C 152.38,305.266 152.713,303.099 153.5,301C 152.492,298.655 150.825,297.655 148.5,298C 146.19,299.637 144.69,301.804 144,304.5C 143.501,308.152 143.335,311.818 143.5,315.5C 142.167,315.5 140.833,315.5 139.5,315.5C 139.649,310.425 140.315,305.425 141.5,300.5C 140.5,300.5 139.5,300.5 138.5,300.5C 138.5,300.167 138.5,299.833 138.5,299.5C 140.123,295.022 141.456,290.356 142.5,285.5C 156.323,284.504 170.323,284.171 184.5,284.5 Z"/></g>
<g><path style="opacity:1" fill="#121829" d="M 184.5,284.5 C 185.833,284.5 187.167,284.5 188.5,284.5C 188.5,292.167 188.5,299.833 188.5,307.5C 186.857,307.48 185.524,308.147 184.5,309.5C 183.482,308.807 182.482,308.141 181.5,307.5C 180.737,305.433 179.404,303.766 177.5,302.5C 179.849,296.443 182.183,290.443 184.5,284.5 Z"/></g>
<g><path style="opacity:1" fill="#5898f1" d="M 188.5,284.5 C 190.167,284.5 191.833,284.5 193.5,284.5C 193.826,293.017 193.493,301.35 192.5,309.5C 191.817,307.824 190.483,307.157 188.5,307.5C 188.5,299.833 188.5,292.167 188.5,284.5 Z"/></g>
<g><path style="opacity:1" fill="#4189f6" d="M 203.5,268.5 C 208.34,276.478 212.34,284.978 215.5,294C 214.86,299.036 213.86,303.869 212.5,308.5C 209.57,307.264 206.737,307.597 204,309.5C 201.79,307.889 199.29,307.222 196.5,307.5C 196.5,308.5 196.5,309.5 196.5,310.5C 194.901,310.768 193.568,310.434 192.5,309.5C 193.493,301.35 193.826,293.017 193.5,284.5C 194.791,284.737 195.791,284.404 196.5,283.5C 199.13,281.372 201.63,279.039 204,276.5C 203.917,273.881 203.75,271.214 203.5,268.5 Z"/></g>
<g><path style="opacity:0.936" fill="#111728" d="M 125.5,285.5 C 125.238,286.978 125.571,288.311 126.5,289.5C 134.347,288.003 138.347,291.336 138.5,299.5C 138.5,299.833 138.5,300.167 138.5,300.5C 136.248,300.916 134.748,302.249 134,304.5C 132.763,308.06 132.263,311.727 132.5,315.5C 129.5,315.5 126.5,315.5 123.5,315.5C 123.822,313.278 123.155,311.444 121.5,310C 119.19,309.503 116.857,309.337 114.5,309.5C 118.183,301.427 121.849,293.427 125.5,285.5 Z"/></g>
<g><path style="opacity:1" fill="#b96934" d="M 347.5,280.5 C 348.609,281.29 349.942,281.79 351.5,282C 338.743,282.059 326.076,283.059 313.5,285C 300.58,288.264 287.58,291.097 274.5,293.5C 273.702,293.043 273.369,292.376 273.5,291.5C 280.357,290.119 287.023,288.452 293.5,286.5C 295.415,286.784 297.081,286.451 298.5,285.5C 299.167,285.5 299.833,285.5 300.5,285.5C 308.79,283.909 317.124,282.575 325.5,281.5C 332.791,280.608 340.124,280.274 347.5,280.5 Z"/></g>
<g><path style="opacity:1" fill="#874627" d="M 379.5,284.5 C 380.646,292.218 379.146,299.551 375,306.5C 371.604,310.065 368.104,313.398 364.5,316.5C 344.833,316.5 325.167,316.5 305.5,316.5C 305.5,315.833 305.5,315.167 305.5,314.5C 321.987,315.275 338.32,314.109 354.5,311C 366.002,306.343 373.335,298.177 376.5,286.5C 378.179,286.715 379.179,286.048 379.5,284.5 Z"/></g>
<g><path style="opacity:1" fill="#a0582b" d="M 152.5,307.5 C 147.839,308.165 145.839,310.832 146.5,315.5C 145.5,315.5 144.5,315.5 143.5,315.5C 143.335,311.818 143.501,308.152 144,304.5C 144.69,301.804 146.19,299.637 148.5,298C 150.825,297.655 152.492,298.655 153.5,301C 152.713,303.099 152.38,305.266 152.5,307.5 Z"/></g>
<g><path style="opacity:1" fill="#a1592b" d="M 138.5,300.5 C 139.5,300.5 140.5,300.5 141.5,300.5C 140.315,305.425 139.649,310.425 139.5,315.5C 136.959,315.85 134.626,315.85 132.5,315.5C 132.263,311.727 132.763,308.06 134,304.5C 134.748,302.249 136.248,300.916 138.5,300.5 Z"/></g>
<g><path style="opacity:1" fill="#3b3a39" d="M 305.5,314.5 C 305.5,315.167 305.5,315.833 305.5,316.5C 296.167,316.5 286.833,316.5 277.5,316.5C 277.223,313.552 277.556,310.719 278.5,308C 282.446,306.857 286.446,306.024 290.5,305.5C 297.609,305.213 302.609,308.213 305.5,314.5 Z"/></g>
<g><path style="opacity:1" fill="#3d3b3e" d="M 67.5,309.5 C 83.2645,310.823 98.9312,310.823 114.5,309.5C 116.857,309.337 119.19,309.503 121.5,310C 123.155,311.444 123.822,313.278 123.5,315.5C 126.5,315.5 129.5,315.5 132.5,315.5C 119.706,317.054 106.706,317.72 93.5,317.5C 67.5029,316.895 41.5029,316.561 15.5,316.5C 30.9911,315.504 46.6578,315.17 62.5,315.5C 61.8482,311.44 63.5149,309.44 67.5,309.5 Z"/></g>
<g><path style="opacity:1" fill="#363534" d="M 265.5,316.5 C 225.663,316.832 185.996,316.499 146.5,315.5C 145.839,310.832 147.839,308.165 152.5,307.5C 154.143,307.48 155.476,308.147 156.5,309.5C 159.578,306.966 162.578,306.966 165.5,309.5C 168.5,306.833 171.5,306.833 174.5,309.5C 176.51,307.829 178.843,307.162 181.5,307.5C 182.482,308.141 183.482,308.807 184.5,309.5C 185.524,308.147 186.857,307.48 188.5,307.5C 190.483,307.157 191.817,307.824 192.5,309.5C 193.568,310.434 194.901,310.768 196.5,310.5C 196.5,309.5 196.5,308.5 196.5,307.5C 199.29,307.222 201.79,307.889 204,309.5C 206.737,307.597 209.57,307.264 212.5,308.5C 212.47,309.497 212.97,310.164 214,310.5C 215.749,310.252 216.582,309.252 216.5,307.5C 218.833,307.5 221.167,307.5 223.5,307.5C 223.281,308.675 223.614,309.675 224.5,310.5C 225.425,309.359 226.259,309.359 227,310.5C 227.236,308.881 228.069,307.881 229.5,307.5C 232.596,306.907 234.929,307.907 236.5,310.5C 237.148,308.851 238.148,307.518 239.5,306.5C 242.321,307.201 244.988,308.201 247.5,309.5C 248.982,307.885 250.816,306.885 253,306.5C 256.521,308.553 260.354,309.553 264.5,309.5C 264.298,311.95 264.631,314.283 265.5,316.5 Z"/></g>
<g><path style="opacity:1" fill="#9b9b9b" d="M 132.5,315.5 C 134.626,315.85 136.959,315.85 139.5,315.5C 140.833,315.5 142.167,315.5 143.5,315.5C 144.5,315.5 145.5,315.5 146.5,315.5C 185.996,316.499 225.663,316.832 265.5,316.5C 269.5,316.5 273.5,316.5 277.5,316.5C 286.833,316.5 296.167,316.5 305.5,316.5C 325.167,316.5 344.833,316.5 364.5,316.5C 375.421,315.645 386.255,315.312 397,315.5C 403.085,316.312 409.252,316.812 415.5,317C 417.92,321.054 417.92,325.054 415.5,329C 281.833,329.667 148.167,329.667 14.5,329C 8.90904,324.237 9.24237,320.07 15.5,316.5C 41.5029,316.561 67.5029,316.895 93.5,317.5C 106.706,317.72 119.706,317.054 132.5,315.5 Z"/></g>
</svg>
